<svg width="384" height="52" xmlns="http://www.w3.org/2000/svg" xmlns:xlink="http://www.w3.org/1999/xlink" xmlns:svgjs="http://svgjs.com/svgjs" viewBox="271 38 384 52"><svg width="52" height="52" xmlns="http://www.w3.org/2000/svg" xmlns:xlink="http://www.w3.org/1999/xlink" xmlns:svgjs="http://svgjs.com/svgjs" fill="#007cba" x="271" y="38"><svg xmlns="http://www.w3.org/2000/svg" xmlns:xlink="http://www.w3.org/1999/xlink" width="52" height="52"><path paint-order="stroke fill markers" fill-rule="evenodd" d="M26 52C11.64 52 0 40.36 0 26S11.64 0 26 0s26 11.64 26 26a26 26 0 0 1-26 26zm-3.246-3.99c2.155.313 4.344.313 6.5 0L26 44.765l-3.246 3.247zM26 39.454l7.503 7.495a22.288 22.288 0 0 0 6.842-3.944L26 28.659 11.663 43.004a22.184 22.184 0 0 0 6.841 3.944L26 39.453zm0-16.105l16.996 16.997a22.043 22.043 0 0 0 3.997-6.968L26 12.383 5.007 33.377a22.332 22.332 0 0 0 3.996 6.968L26 23.348zM26 3.75A22.286 22.286 0 0 0 3.967 29.105L26 7.072l22.033 22.033A22.286 22.286 0 0 0 26 3.751z"/></svg></svg><svg width="27" height="27" xmlns="http://www.w3.org/2000/svg" xmlns:xlink="http://www.w3.org/1999/xlink" xmlns:svgjs="http://svgjs.com/svgjs" viewBox="0.5 0 26 27" fill="#231f20" x="338" y="50"><svg xmlns="http://www.w3.org/2000/svg" xmlns:xlink="http://www.w3.org/1999/xlink" width="27" height="27" viewBox="1 0 26 27"><path paint-order="stroke fill markers" fill-rule="evenodd" d="M10.722 18.796h6.452l-3.277-7.225-3.175 7.225zM20.865 27l-1.476-3.33H8.604l-1.477 3.307H1L13.195 0h1.366L27 26.977 20.865 27z"/></svg></svg><svg width="24" height="28" xmlns="http://www.w3.org/2000/svg" xmlns:xlink="http://www.w3.org/1999/xlink" xmlns:svgjs="http://svgjs.com/svgjs" viewBox="0 0.5 24 27" fill="#231f20" x="368" y="49"><svg xmlns="http://www.w3.org/2000/svg" xmlns:xlink="http://www.w3.org/1999/xlink" width="24" height="28" viewBox="0 1 24 27"><path paint-order="stroke fill markers" fill-rule="evenodd" d="M17.749 1h6.25v27h-2.637L6.334 13.31V28H0V1h2.683L17.75 15.765V1z"/></svg></svg><svg width="8" height="28" xmlns="http://www.w3.org/2000/svg" xmlns:xlink="http://www.w3.org/1999/xlink" xmlns:svgjs="http://svgjs.com/svgjs" viewBox="0.37 0 7.259 28" fill="#231f20" x="396" y="49"><svg xmlns="http://www.w3.org/2000/svg" xmlns:xlink="http://www.w3.org/1999/xlink" width="8" height="28" viewBox="1 1 7 27"><path paint-order="stroke fill markers" fill-rule="evenodd" d="M1 1h7v27H1V1z"/></svg></svg><svg width="27" height="27" xmlns="http://www.w3.org/2000/svg" xmlns:xlink="http://www.w3.org/1999/xlink" xmlns:svgjs="http://svgjs.com/svgjs" viewBox="0.5 0 26 27" fill="#231f20" x="405" y="50"><svg xmlns="http://www.w3.org/2000/svg" xmlns:xlink="http://www.w3.org/1999/xlink" width="27" height="27" viewBox="1 0 26 27"><path paint-order="stroke fill markers" fill-rule="evenodd" d="M10.76 18.79h6.473l-3.277-7.232-3.197 7.231zM20.872 27l-1.477-3.31H8.641L7.164 27H1L13.195 0h1.366L27 27h-6.127z"/></svg></svg><svg width="20" height="20" xmlns="http://www.w3.org/2000/svg" xmlns:xlink="http://www.w3.org/1999/xlink" xmlns:svgjs="http://svgjs.com/svgjs" viewBox="0.5 0 19 20" fill="#636466" x="444" y="57"><svg xmlns="http://www.w3.org/2000/svg" xmlns:xlink="http://www.w3.org/1999/xlink" width="20" height="20" viewBox="0 0 19 20"><path paint-order="stroke fill markers" fill-rule="evenodd" d="M0 0h2.266l7.23 10.912L16.726 0H19v20h-2.243V3.798l-7.23 10.716h-.113L2.176 3.828V20H0V0z"/></svg></svg><svg width="20" height="21" xmlns="http://www.w3.org/2000/svg" xmlns:xlink="http://www.w3.org/1999/xlink" xmlns:svgjs="http://svgjs.com/svgjs" viewBox="0 0.5 20 20" fill="#636466" x="467" y="56"><svg xmlns="http://www.w3.org/2000/svg" xmlns:xlink="http://www.w3.org/1999/xlink" width="20" height="21" viewBox="0 1 20 20"><path paint-order="stroke fill markers" fill-rule="evenodd" d="M14.444 13.73L10 3.597 5.48 13.73h8.963zM8.963 1h2.081L20 21h-2.393l-2.303-5.242H4.614L2.282 21H0L8.963 1z"/></svg></svg><svg width="18" height="20" xmlns="http://www.w3.org/2000/svg" xmlns:xlink="http://www.w3.org/1999/xlink" xmlns:svgjs="http://svgjs.com/svgjs" viewBox="0.5 0 17 20" fill="#636466" x="491" y="57"><svg xmlns="http://www.w3.org/2000/svg" xmlns:xlink="http://www.w3.org/1999/xlink" width="18" height="20" viewBox="0 0 17 20"><path paint-order="stroke fill markers" fill-rule="evenodd" d="M0 0h2.128l12.66 16.028V0H17v20h-1.81L2.211 3.594V20H0V0z"/></svg></svg><svg width="20" height="21" xmlns="http://www.w3.org/2000/svg" xmlns:xlink="http://www.w3.org/1999/xlink" xmlns:svgjs="http://svgjs.com/svgjs" viewBox="0 0.5 20 20" fill="#636466" x="512" y="56"><svg xmlns="http://www.w3.org/2000/svg" xmlns:xlink="http://www.w3.org/1999/xlink" width="20" height="21" viewBox="0 1 20 20"><path paint-order="stroke fill markers" fill-rule="evenodd" d="M14.437 13.72L9.993 3.595 5.474 13.72h8.963zM8.955 1h2.082L20 21h-2.393l-2.303-5.238H4.6L2.274 21H0L8.955 1z"/></svg></svg><svg width="18" height="20" xmlns="http://www.w3.org/2000/svg" xmlns:xlink="http://www.w3.org/1999/xlink" xmlns:svgjs="http://svgjs.com/svgjs" fill="#636466" x="533" y="57"><svg xmlns="http://www.w3.org/2000/svg" xmlns:xlink="http://www.w3.org/1999/xlink" width="18" height="20"><path paint-order="stroke fill markers" fill-rule="evenodd" d="M0 10.055v-.05C0 4.704 3.98.008 9.9.008c2.702-.112 5.343.81 7.364 2.57L15.82 4.23a8.496 8.496 0 0 0-6.003-2.184c-4.373 0-7.505 3.64-7.505 7.921v.058c0 4.608 3.02 8.008 7.81 8.008a9.388 9.388 0 0 0 5.698-1.93V11.3H9.818V9.342H18v7.702A12.132 12.132 0 0 1 10.07 20C3.868 20 .03 15.58.03 10.055H0"/></svg></svg><svg width="14" height="20" xmlns="http://www.w3.org/2000/svg" xmlns:xlink="http://www.w3.org/1999/xlink" xmlns:svgjs="http://svgjs.com/svgjs" fill="#636466" x="557" y="57"><svg xmlns="http://www.w3.org/2000/svg" xmlns:xlink="http://www.w3.org/1999/xlink" width="14" height="20"><path paint-order="stroke fill markers" fill-rule="evenodd" d="M0 0h13.87v2.057H2.16v6.827h10.473v2.058H2.16v7H14V20H0V0z"/></svg></svg><svg width="19" height="20" xmlns="http://www.w3.org/2000/svg" xmlns:xlink="http://www.w3.org/1999/xlink" xmlns:svgjs="http://svgjs.com/svgjs" fill="#636466" x="575" y="57"><svg xmlns="http://www.w3.org/2000/svg" xmlns:xlink="http://www.w3.org/1999/xlink" width="19" height="20"><path paint-order="stroke fill markers" fill-rule="evenodd" d="M0 0h2.266l7.23 10.912L16.726 0H19v20h-2.243V3.798l-7.23 10.716h-.113L2.184 3.828V20H0V0z"/></svg></svg><svg width="14" height="20" xmlns="http://www.w3.org/2000/svg" xmlns:xlink="http://www.w3.org/1999/xlink" xmlns:svgjs="http://svgjs.com/svgjs" fill="#636466" x="600" y="57"><svg xmlns="http://www.w3.org/2000/svg" xmlns:xlink="http://www.w3.org/1999/xlink" width="14" height="20"><path paint-order="stroke fill markers" fill-rule="evenodd" d="M0 0h13.863v2.057H2.167v6.827h10.46v2.058H2.167v7H14V20H0V0z"/></svg></svg><svg width="17" height="20" xmlns="http://www.w3.org/2000/svg" xmlns:xlink="http://www.w3.org/1999/xlink" xmlns:svgjs="http://svgjs.com/svgjs" fill="#636466" x="618" y="57"><svg xmlns="http://www.w3.org/2000/svg" xmlns:xlink="http://www.w3.org/1999/xlink" width="17" height="20"><path paint-order="stroke fill markers" fill-rule="evenodd" d="M0 0h2.128l12.66 16.028V0H17v20h-1.81L2.211 3.594V20H0V0z"/></svg></svg><svg width="15" height="20" xmlns="http://www.w3.org/2000/svg" xmlns:xlink="http://www.w3.org/1999/xlink" xmlns:svgjs="http://svgjs.com/svgjs" fill="#636466" x="640" y="57"><svg xmlns="http://www.w3.org/2000/svg" width="15" height="20"><path paint-order="stroke fill markers" fill-rule="evenodd" d="M0 0v2.08h6.41V20h2.18V2.08H15V0H0z"/></svg></svg></svg>